<?xml version="1.0" encoding="UTF-8" standalone="no"?>
<!-- Created with Inkscape (http://www.inkscape.org/) -->

<svg
   xmlns:dc="http://purl.org/dc/elements/1.1/"
   xmlns:cc="http://creativecommons.org/ns#"
   xmlns:rdf="http://www.w3.org/1999/02/22-rdf-syntax-ns#"
   xmlns:svg="http://www.w3.org/2000/svg"
   xmlns="http://www.w3.org/2000/svg"
   xmlns:sodipodi="http://sodipodi.sourceforge.net/DTD/sodipodi-0.dtd"
   xmlns:inkscape="http://www.inkscape.org/namespaces/inkscape"
   width="210mm"
   height="297mm"
   viewBox="0 0 744.09448819 1052.3622047"
   id="svg2"
   version="1.1"
   inkscape:version="0.91 r13725"
   inkscape:export-filename="C:\Users\Nicolas\Desktop\janus-icon.png"
   inkscape:export-xdpi="90"
   inkscape:export-ydpi="90"
   sodipodi:docname="janus-icon.svg">
  <defs
     id="defs4" />
  <sodipodi:namedview
     id="base"
     pagecolor="#ffffff"
     bordercolor="#666666"
     borderopacity="1.0"
     inkscape:pageopacity="0.0"
     inkscape:pageshadow="2"
     inkscape:zoom="0.5"
     inkscape:cx="744.19559"
     inkscape:cy="712.36946"
     inkscape:document-units="px"
     inkscape:current-layer="layer1"
     showgrid="false"
     inkscape:window-width="1920"
     inkscape:window-height="1017"
     inkscape:window-x="1358"
     inkscape:window-y="-8"
     inkscape:window-maximized="1" />
  <metadata
     id="metadata7">
    <rdf:RDF>
      <cc:Work
         rdf:about="">
        <dc:format>image/svg+xml</dc:format>
        <dc:type
           rdf:resource="http://purl.org/dc/dcmitype/StillImage" />
        <dc:title></dc:title>
      </cc:Work>
    </rdf:RDF>
  </metadata>
  <g
     inkscape:label="Calque 1"
     inkscape:groupmode="layer"
     id="layer1">
    <g
       id="g4164"
       style="stroke:#000000;stroke-opacity:1;stroke-linejoin:round;stroke-width:4.5;stroke-miterlimit:4;stroke-dasharray:none">
      <path
         sodipodi:nodetypes="cccccccccccccccc"
         inkscape:connector-curvature="0"
         id="path3347"
         d="m 380.82751,897.80887 -206.07112,0 c 22.06228,-45.11723 57.57806,-82.83276 159.6041,-95.96449 3.76853,-10.80527 12.14369,-13.06349 6.06092,-46.46702 l -8.08122,-16.16244 13.13198,-8.08122 c 7.4126,-5.96403 13.34386,-16.6132 2.02031,-25.25382 l -9.09138,-10.10152 c 4.37733,-6.62617 8.75466,-13.92918 13.13199,-23.23351 -5.09103,-4.65365 -12.25614,-6.19618 -7.07107,-26.26397 6.34837,-7.64597 21.50526,-16.74655 23.2335,-39.39595 -32.23432,-20.18523 -53.56185,-41.09907 -65.65991,-62.62946 15.66875,-46.59044 20.61203,-95.86224 4.04061,-150.51272 C 299.79101,333.31534 237.47166,300.41451 203.04066,265.45337 111.60644,229.24747 95.172428,219.76491 90.913729,206.86452 l 289.913781,-3.03045"
         style="fill:none;fill-rule:evenodd;stroke:#000000;stroke-width:4.5;stroke-linecap:butt;stroke-linejoin:round;stroke-miterlimit:4;stroke-dasharray:none;stroke-opacity:1" />
      <path
         sodipodi:nodetypes="cccccccccccccccc"
         inkscape:connector-curvature="0"
         id="path3347-9"
         d="m 380.91644,897.83948 206.07112,0 c -22.06228,-45.11723 -57.57806,-82.83276 -159.6041,-95.96449 -3.76853,-10.80527 -12.14369,-13.06349 -6.06092,-46.46702 l 8.08122,-16.16244 -13.13198,-8.08122 c -7.4126,-5.96403 -13.34386,-16.6132 -2.02031,-25.25382 l 9.09138,-10.10152 c -4.37733,-6.62617 -8.75466,-13.92918 -13.13199,-23.23351 5.09103,-4.65365 12.25614,-6.19618 7.07107,-26.26397 -6.34837,-7.64597 -21.50526,-16.74655 -23.2335,-39.39595 32.23432,-20.18523 53.56185,-41.09907 65.65991,-62.62946 -15.66875,-46.59044 -20.61203,-95.86224 -4.04061,-150.51272 6.28521,-60.42741 68.60456,-93.32825 103.03556,-128.28939 91.43422,-36.2059 107.86823,-45.68846 112.12693,-58.58885 l -289.91378,-3.03045"
         style="fill:none;fill-rule:evenodd;stroke:#000000;stroke-width:4.5;stroke-linecap:butt;stroke-linejoin:round;stroke-miterlimit:4;stroke-dasharray:none;stroke-opacity:1" />
    </g>
    <path
       style="stroke:#000000;stroke-width:2.25;stroke-linejoin:round;stroke-miterlimit:4;stroke-dasharray:none;stroke-opacity:1"
       d="m 353.87563,725.58176 c 0,-0.10255 0.48817,-1.2838 1.08481,-2.625 1.41157,-3.17305 1.51338,-8.036 0.23748,-11.3433 -0.67255,-1.7433 -2.68079,-4.2704 -7.30144,-9.18775 l -6.37373,-6.78301 3.16464,-5.16894 c 4.25143,-6.94402 9.18824,-16.6001 9.18824,-17.97159 0,-0.74316 -1.08455,-2.06402 -3.27066,-3.98332 -4.30875,-3.78287 -5.22934,-5.63979 -5.22934,-10.54807 0,-2.1105 0.2737,-5.32572 0.60823,-7.14492 l 0.60822,-3.30765 6.12264,-6.25 c 7.54124,-7.69811 9.57008,-10.3765 12.68787,-16.75 3.29993,-6.74584 5.66324,-17.1934 4.28549,-18.94505 -0.30934,-0.3933 -3.93745,-2.96301 -8.06245,-5.71048 -24.40313,-16.25375 -41.69122,-32.61404 -53.6444,-50.76548 l -3.24061,-4.921 1.80312,-5.829 c 5.86966,-18.97506 9.52712,-36.84688 11.42538,-55.82899 0.95258,-9.52561 0.80388,-34.04583 -0.26532,-43.75 -1.54822,-14.0518 -4.35198,-28.70992 -7.79454,-40.75 -0.78629,-2.75 -1.58573,-6.2375 -1.77654,-7.75 -2.20644,-17.49029 -11.11244,-36.95746 -24.58999,-53.75 -10.61851,-13.23029 -22.17003,-24.21063 -48.9171,-46.49832 -14.7998,-12.33232 -18.27031,-15.35314 -25.27278,-21.9981 l -5.27278,-5.00358 -11.97722,-4.70277 c -45.12288,-17.71718 -74.05943,-30.79411 -85.72722,-38.42364 -5.21971,-3.41315 -9.81591,-7.4111 -10.944551,-9.51999 -0.584588,-1.09231 -0.552453,-1.1036 3.140593,-1.1036 3.570268,0 66.225918,-0.65908 212.573408,-2.23605 66.79711,-0.71978 69.00094,-0.71179 206,0.74705 76.1643,0.81104 141.0197,1.47785 144.12315,1.48181 5.64055,0.007 5.64235,0.008 5.05975,1.09626 -1.1693,2.18477 -5.54585,6.00873 -10.8117,9.44654 -11.679,7.62458 -36.87875,19.01179 -82.64065,37.34348 l -15.75,6.30927 -5,4.79034 c -6.64517,6.36653 -9.93184,9.22723 -26.75,23.28309 -7.8375,6.55022 -16.275,13.69689 -18.75,15.88148 -7.7461,6.8372 -20.63075,19.84401 -26.10918,26.35673 -14.9139,17.72954 -24.57051,38.01419 -26.8971,56.5 -0.19036,1.5125 -1.23023,5.9 -2.31083,9.75 -8.74513,31.15759 -10.62673,65.01633 -5.47831,98.58029 1.89864,12.37772 6.27538,30.45811 10.58666,43.73372 0.5743,1.76841 0.50891,1.93806 -2.60107,6.74859 -11.38621,17.6123 -29.93098,35.12467 -54.19017,51.17335 -3.85,2.54698 -7.27779,4.98035 -7.61731,5.4075 -1.05845,1.33165 0.6146,10.2817 3.01083,16.10655 3.02608,7.35589 6.32025,11.9361 14.63832,20.35315 5.47338,5.53851 5.54407,5.64012 6.12771,8.80765 0.32475,1.76247 0.59045,4.93127 0.59045,7.04177 0,4.90828 -0.92059,6.7652 -5.22933,10.54807 -2.31093,2.02888 -3.27067,3.22146 -3.27067,4.06416 0,1.40707 4.70733,10.5719 9.19433,17.90069 l 3.17452,5.18507 -6.38024,6.76613 c -4.6462,4.92721 -6.63278,7.42076 -7.30943,9.17471 -1.2774,3.31125 -1.1763,8.1724 0.23601,11.34715 0.59665,1.3412 1.08481,2.52245 1.08481,2.625 0,0.10255 -12.15,0.18645 -27,0.18645 -14.85,0 -27,-0.0839 -27,-0.18645 z"
       id="path4176"
       inkscape:connector-curvature="0"
       sodipodi:nodetypes="sssscssssscssssscsssssssscssssssccsscsssssssssssssssssscssssss" />
    <path
       style="stroke:#000000;stroke-width:2.25;stroke-linejoin:round;stroke-miterlimit:4;stroke-dasharray:none;stroke-opacity:1"
       d="m 180.12178,892.7758 c 3.90422,-7.70459 11.33278,-19.08584 17.29703,-26.50065 24.82465,-30.86221 63.96558,-50.11697 120.92746,-59.48835 4.82865,-0.79441 10.01686,-1.59153 11.52936,-1.77137 6.18859,-0.73586 5.87301,-0.46859 9.58892,-8.12109 4.58023,-9.4325 4.98435,-10.95542 5.27905,-19.89398 0.19902,-6.03646 0.0367,-8.97423 -0.82366,-14.90883 -1.05987,-7.31055 -1.10947,-7.46673 -4.55792,-14.35049 -1.91751,-3.82773 -3.48639,-7.15978 -3.48639,-7.40457 0,-0.24478 2.08125,-1.69031 4.625,-3.2123 6.62328,-3.96285 8.62589,-5.52723 10.99475,-8.58879 1.71872,-2.22131 2.22642,-2.60239 2.81581,-2.11355 0.53472,0.4435 7.61751,0.61495 27.63054,0.66883 l 26.9115,0.0725 2.48275,2.71652 c 1.59502,1.74521 4.63824,4.03803 8.5112,6.41249 3.31565,2.03279 6.02845,3.8745 6.02845,4.0927 0,0.21819 -1.58281,3.5563 -3.51735,7.41802 -4.44352,8.87013 -5.17479,12.62032 -5.20935,26.71537 -0.0278,11.32528 0.39166,13.08548 5.52978,23.20605 l 3.26925,6.43948 4.08884,0.56945 c 71.60737,9.97268 115.26594,32.06903 141.82485,71.78001 3.6357,5.4361 7.76769,12.31552 9.76783,16.2626 l 1.263,2.49241 -202.01685,0 -202.01684,0 1.26299,-2.49241 z"
       id="path4178"
       inkscape:connector-curvature="0" />
    <path
       style="stroke:#000000;stroke-width:2.25;stroke-linejoin:round;stroke-miterlimit:4;stroke-dasharray:none;stroke-opacity:1"
       d="m 173.47563,899.16821 c -1.00177,-1.00175 -0.73363,-1.80935 2.91791,-8.78821 17.3693,-33.19627 41.88351,-55.52287 77.48209,-70.56771 19.06348,-8.05669 47.59988,-15.46824 72.80288,-18.90855 l 6.05287,-0.82624 3.07383,-6.03797 c 1.91695,-3.7655 3.35219,-7.35212 3.81344,-9.52965 0.95937,-4.52911 0.95557,-13.55005 -0.009,-21.3208 -0.76373,-6.15288 -0.77863,-6.1968 -5.11091,-15.06415 -3.44887,-7.05917 -4.23557,-9.06669 -3.81457,-9.7341 0.2917,-0.46245 3.48476,-2.65344 7.09567,-4.86887 9.31011,-5.71209 12.40661,-8.9947 13.62642,-14.44537 0.94943,-4.24251 0.14015,-6.12008 -4.98399,-11.56309 -6.42776,-6.82778 -10.04664,-11.03046 -10.04664,-11.6674 0,-0.30866 1.56859,-3.06506 3.48576,-6.12533 1.91717,-3.06026 4.74293,-8.02187 6.27947,-11.0258 l 2.79372,-5.46167 -3.19919,-3.10755 c -2.33485,-2.26795 -3.42352,-3.77328 -4.02948,-5.57161 -1.07291,-3.18415 -1.08311,-9.94898 -0.0228,-15.10745 l 0.80752,-3.92848 6.33292,-6.5 c 9.51463,-9.76565 13.33038,-15.76884 15.5441,-24.45498 1.68293,-6.60346 1.94732,-6.07914 -5.61705,-11.13917 -25.81835,-17.27067 -44.80634,-35.70484 -56.30164,-54.65949 l -2.57967,-4.25363 1.99678,-6.40034 c 8.84728,-28.35849 12.27131,-49.88549 12.22236,-76.84239 -0.0418,-23.03115 -2.46033,-40.4419 -8.69988,-62.63027 -0.83213,-2.95914 -1.51297,-5.71539 -1.51297,-6.125 0,-0.65642 9.1307,-0.74473 77,-0.74473 68.22216,0 77,0.0858 77,0.75244 0,0.41384 -0.7791,3.51742 -1.73133,6.89684 -5.31904,18.87699 -8.01162,36.69028 -8.59329,56.85072 -0.75232,26.07492 3.10896,52.01937 12.05513,81 l 2.23804,7.25 -2.68302,4.5 c -10.89853,18.27914 -30.83325,37.58391 -56.38805,54.60615 -7.30531,4.86612 -7.0627,4.37371 -5.38953,10.93887 2.21293,8.68305 6.03763,14.70721 15.5291,24.45936 7.2735,7.47327 7.33571,7.60921 7.80676,17.05924 0.37817,7.58675 -0.36317,9.8214 -4.66013,14.04717 -2.34172,2.30292 -3.07739,3.34171 -2.83279,4 0.64926,1.74729 6.35109,11.97149 9.22423,16.54036 1.60869,2.55813 2.92488,4.89637 2.92488,5.19609 0,0.69173 -3.0171,4.21537 -9.40609,10.98527 -5.44676,5.77149 -6.47969,7.80422 -5.87794,11.56736 0.85153,5.32517 4.58557,9.39888 13.87835,15.14082 3.8367,2.37067 7.10615,4.64992 7.26542,5.06499 0.16003,0.41702 -1.63501,4.70093 -4.01191,9.5745 -4.2114,8.63507 -4.3177,8.9438 -5.07467,14.73897 -0.97399,7.4567 -0.98205,17.01276 -0.0181,21.563 1.0247,4.83738 6.5098,15.76785 7.91257,15.76785 1.94044,0 17.64227,2.57748 26.33245,4.32251 66.18098,13.28948 105.67932,39.91008 129.89448,87.54469 2.32087,4.56545 2.7517,5.78245 2.30103,6.5 -0.52662,0.83845 -5.74704,0.88915 -103.875,1.009 l -103.32054,0.1262 0,-1.7512 c 0,-0.96315 -0.225,-1.7512 -0.5,-1.7512 -0.275,0 -0.5,0.7875 -0.5,1.75 l 0,1.75 -103.15,0 c -79.56111,0 -103.28721,-0.1372 -103.75,-0.6 z m 235.15,-173.4 c -0.16996,-0.275 -0.57699,-0.49656 -0.90451,-0.49235 -0.3578,0.005 -0.29613,0.20112 0.15451,0.49235 0.96056,0.62076 1.13365,0.62076 0.75,0 z m -2.125,-0.33114 c -0.34375,-0.13871 -0.90625,-0.13871 -1.25,0 -0.34375,0.1387 -0.0625,0.25219 0.625,0.25219 0.6875,0 0.96875,-0.11349 0.625,-0.25219 z"
       id="path4180"
       inkscape:connector-curvature="0" />
    <flowRoot
       xml:space="preserve"
       id="flowRoot4182"
       style="font-style:normal;font-variant:normal;font-weight:bold;font-stretch:normal;font-size:180px;line-height:125%;font-family:'Courier New';-inkscape-font-specification:'Courier New Bold';text-align:center;letter-spacing:0px;word-spacing:0px;text-anchor:middle;fill:#000000;fill-opacity:1;stroke:none;stroke-width:1px;stroke-linecap:butt;stroke-linejoin:miter;stroke-opacity:1"
       transform="translate(-112,-58)"><flowRegion
         id="flowRegion4184"><rect
           id="rect4186"
           width="628"
           height="212"
           x="172"
           y="906.36218"
           style="font-style:normal;font-variant:normal;font-weight:bold;font-stretch:normal;font-size:180px;font-family:'Courier New';-inkscape-font-specification:'Courier New Bold';text-align:center;text-anchor:middle" /></flowRegion><flowPara
         id="flowPara4188">Janus</flowPara></flowRoot>  </g>
</svg>
